<?xml version="1.0" encoding="UTF-8" standalone="no"?>
<!-- Created with Inkscape (http://www.inkscape.org/) -->

<svg
   xmlns:dc="http://purl.org/dc/elements/1.1/"
   xmlns:cc="http://creativecommons.org/ns#"
   xmlns:rdf="http://www.w3.org/1999/02/22-rdf-syntax-ns#"
   xmlns:svg="http://www.w3.org/2000/svg"
   xmlns="http://www.w3.org/2000/svg"
   xmlns:sodipodi="http://sodipodi.sourceforge.net/DTD/sodipodi-0.dtd"
   xmlns:inkscape="http://www.inkscape.org/namespaces/inkscape"
   width="256"
   height="256"
   viewBox="0 0 67.733333 67.733333"
   version="1.1"
   id="svg8"
   inkscape:version="0.92.2 (5c3e80d, 2017-08-06)"
   sodipodi:docname="logo.svg">
  <defs
     id="defs2" />
  <sodipodi:namedview
     id="base"
     pagecolor="#ffffff"
     bordercolor="#666666"
     borderopacity="1.0"
     inkscape:pageopacity="0.0"
     inkscape:pageshadow="2"
     inkscape:zoom="2.552483"
     inkscape:cx="104.17131"
     inkscape:cy="130.50499"
     inkscape:document-units="mm"
     inkscape:current-layer="layer1"
     showgrid="false"
     units="px"
     width="256px"
     inkscape:window-width="1680"
     inkscape:window-height="987"
     inkscape:window-x="-8"
     inkscape:window-y="-8"
     inkscape:window-maximized="1" />
  <metadata
     id="metadata5">
    <rdf:RDF>
      <cc:Work
         rdf:about="">
        <dc:format>image/svg+xml</dc:format>
        <dc:type
           rdf:resource="http://purl.org/dc/dcmitype/StillImage" />
        <dc:title></dc:title>
      </cc:Work>
    </rdf:RDF>
  </metadata>
  <g
     inkscape:label="Layer 1"
     inkscape:groupmode="layer"
     id="layer1"
     transform="translate(0,-229.26667)">
    <path
       style="display:inline;fill:#af2c01;fill-opacity:1;stroke:#000000;stroke-width:0.26458332px;stroke-linecap:butt;stroke-linejoin:miter;stroke-opacity:1"
       d="m 26.259231,262.32178 c 4.458631,-2.00235 9.066412,-2.92337 14.232102,0.20045 -9.681897,-17.41396 4.544987,-23.30179 10.356693,-23.31926 26.054903,2.99475 9.806932,28.52413 4.944486,24.05425 -2.63897,-4.33459 2.202451,-11.57196 -3.407684,-9.35443 5.0145,24.79234 -3.991853,29.50431 -7.483547,29.26602 -0.481354,0.0796 0.901506,1.50311 0.415791,2.28972 -0.564247,0.9138 -3.066415,1.34555 -3.610335,1.39227 -0.362378,0.0311 -3.662564,1.46061 -4.326552,1.01489 -0.350609,-0.23536 -2.253121,-2.36129 -1.910474,-3.06406 0.349211,-0.71623 2.945396,-0.009 2.757333,-0.24513 -0.409035,-0.51261 0.538517,-0.84647 0.125246,-0.84267 -1.237353,0.0114 -2.459596,-0.0226 -3.672211,-0.0854 -0.563379,-0.0292 -0.201425,0.71041 -0.59899,1.12457 -0.457937,0.47705 -1.677726,0.47543 -2.312957,0.58119 -0.862721,0.14364 -6.129747,0.29316 -7.081977,-0.29766 -0.846973,-0.5255 2.71194,-2.00838 2.028931,-2.07129 -0.527205,-0.0486 -3.431723,2.36033 -3.849007,2.68787 -0.77481,0.28529 -3.317221,2.9278 -4.476845,2.90729 -2.013342,-0.0356 -2.523294,-3.00203 -1.535053,-3.63021 0.870243,-0.55317 3.241197,-3.89288 3.076838,-4.60993 -0.07855,-0.34266 -0.383541,-0.45347 -0.676946,-0.61427 -0.847439,-0.47039 -3.300075,4.48647 -4.650876,5.56031 -3.235999,2.57251 -5.7848212,1.48748 -5.822511,-0.40269 -0.022543,-1.13053 1.628551,-2.5597 2.41264,-3.63706 0.824792,-1.13328 0.854893,-5.79612 0.09881,-6.8776 -0.724059,-1.51602 -1.3862753,-2.57854 -2.4722427,-6.74856 -9.9193713,-7.94015 -2.9950025,-6.61624 -3.9422255,-9.6217 0.090596,-3.05318 1.919865,-4.43207 5.4122082,-4.20949 0.233704,-2.98096 3.006796,-4.63176 3.741773,0.33408 1.615063,0.14988 2.825385,0.90686 4.07586,1.60362 3.579825,-6.35857 8.43334,-3.36516 2.271791,3.34087 z"
       id="path4653"
       inkscape:connector-curvature="0"
       sodipodi:nodetypes="ccccccssssssssssscssscssscccccccc"
       inkscape:label="Body" />
    <g
       id="g4668"
       inkscape:label="White Fur"
       style="display:inline">
      <path
         inkscape:label="Face Fur"
         sodipodi:nodetypes="cccccc"
         inkscape:connector-curvature="0"
         id="path4655"
         d="m 10.384896,260.61979 c 0.948642,-6.6242 7.713863,-6.32895 7.342187,-0.79375 0.704351,1.78301 1.737671,3.76341 1.190625,4.79558 -3.478621,4.44542 -5.854641,4.03967 -7.077604,4.10104 -4.6238118,-1.48483 -7.4083332,-5.09323 -7.6398436,-6.05234 2.0150726,-2.1474 4.0814229,-2.67955 6.1846356,-2.05053 z"
         style="fill:#ffe6d5;stroke:#000000;stroke-width:0.26458332px;stroke-linecap:butt;stroke-linejoin:miter;stroke-opacity:1" />
      <path
         inkscape:label="Somach Fur"
         sodipodi:nodetypes="ccccsc"
         inkscape:connector-curvature="0"
         id="path4657"
         d="m 11.272724,274.42864 c -0.982442,-1.55031 -1.6441436,-3.35384 -1.3216296,-5.93438 3.6904876,1.62987 6.7061436,-0.16261 9.4328086,-3.42069 1.972358,0.80583 2.134062,4.71563 2.746916,7.85204 0.224489,-0.16837 -1.865155,7.30522 -2.124973,7.02278 -1.325379,-1.44076 -8.969805,-4.31186 -8.733122,-5.51975 z"
         style="fill:#f4e3d7;stroke:#000000;stroke-width:0.26458332px;stroke-linecap:butt;stroke-linejoin:miter;stroke-opacity:1" />
      <path
         inkscape:label="Stomach Fur"
         sodipodi:nodetypes="ccccc"
         inkscape:connector-curvature="0"
         id="path4659"
         d="m 29.135451,278.30934 c 2.751831,1.3694 5.318978,1.26133 7.8794,1.09945 0.451479,1.46541 0.890974,2.91884 1.246044,4.28785 -3.987747,0.31638 -7.870615,-0.31116 -11.764126,-0.84291 1.394706,-1.04648 2.318616,-2.52096 2.638682,-4.54439 z"
         style="fill:#f4e3d7;stroke:#000000;stroke-width:0.26458332px;stroke-linecap:butt;stroke-linejoin:miter;stroke-opacity:1" />
      <path
         inkscape:label="Ear Fur"
         sodipodi:nodetypes="cccc"
         inkscape:connector-curvature="0"
         id="path4661"
         d="m 19.588552,257.16323 c 1.613898,-1.10131 2.095531,-3.19334 3.005166,-4.91088 0.797418,3.27689 -1.364777,5.59741 -2.711979,6.39514 -0.33707,-0.16566 -0.342197,-0.78774 -0.293187,-1.48426 z"
         style="fill:#e9c6af;stroke:#000000;stroke-width:0.26458332px;stroke-linecap:round;stroke-linejoin:round;stroke-opacity:1" />
      <path
         inkscape:label="Tail Fur"
         sodipodi:nodetypes="cccsc"
         inkscape:connector-curvature="0"
         id="path4515"
         d="m 52.451645,253.83597 c 1.973028,-3.006 1.998236,-2.81264 3.541321,-3.0736 5.228744,-0.51218 7.797896,13.24067 0.427931,12.82558 -1.046209,0.0288 -1.569991,-2.87627 -1.407117,-3.98327 1.038268,-7.05671 -0.70161,-6.69476 -2.562135,-5.76871 z"
         style="display:inline;fill:#f4e3d7;stroke:#000000;stroke-width:0.26458332px;stroke-linecap:butt;stroke-linejoin:miter;stroke-opacity:1" />
    </g>
    <path
       style="display:inline;fill:#aa4400;stroke:#000000;stroke-width:0.26458332px;stroke-linecap:butt;stroke-linejoin:miter;stroke-opacity:1"
       d="m 4.4934688,258.27933 c 2.2856312,0.3278 3.0597058,1.34266 2.4054257,3.00678 -1.1478427,0.53407 -1.3960961,3.35566 -3.9422254,0.33409 0.025592,-1.2611 -1.1920927,-2.89895 1.5367997,-3.34087 z"
       id="path4517"
       inkscape:connector-curvature="0"
       sodipodi:nodetypes="cccc"
       inkscape:label="Nose" />
    <g
       id="g4527"
       transform="translate(-0.08352175,-0.01670437)"
       inkscape:label="Nut"
       style="display:inline">
      <path
         sodipodi:nodetypes="cccc"
         inkscape:connector-curvature="0"
         id="path4519"
         d="m 4.7607385,267.61706 3.1571213,-2.6727 c -0.938284,-1.12431 -2.246706,-1.37555 -3.1571213,-0.63477 -1.1997897,1.11391 -0.5887912,2.26863 0,3.30747 z"
         style="fill:#ff9955;stroke:#000000;stroke-width:0.26458332px;stroke-linecap:butt;stroke-linejoin:miter;stroke-opacity:1" />
      <ellipse
         ry="2.6495814"
         rx="2.9084988"
         cy="267.70895"
         cx="7.7508168"
         id="path4521"
         style="opacity:1;fill:#aa4400;fill-opacity:1;stroke:#000000;stroke-width:0.55868953;stroke-linecap:round;stroke-linejoin:round;stroke-miterlimit:4;stroke-dasharray:none;stroke-dashoffset:0;stroke-opacity:1;paint-order:stroke fill markers" />
      <ellipse
         style="opacity:1;fill:#803300;fill-opacity:1;stroke:#000000;stroke-width:0.52916664;stroke-linecap:round;stroke-linejoin:round;stroke-miterlimit:4;stroke-dasharray:none;stroke-dashoffset:0;stroke-opacity:1;paint-order:stroke fill markers"
         id="path4529"
         cx="9.120573"
         cy="269.22067"
         rx="1.2027128"
         ry="1.1024867" />
    </g>
    <g
       id="g4651"
       inkscape:label="Eye"
       style="display:inline">
      <path
         sodipodi:nodetypes="cccc"
         inkscape:connector-curvature="0"
         id="path4645"
         d="m 11.43378,258.90709 c 0.745275,-1.93368 3.945746,-3.99902 6.035807,0.15355 -0.618751,2.14547 -1.796742,2.60079 -3.118304,2.62221 -0.469877,0.0189 -2.709895,-0.26188 -2.917503,-2.77576 z"
         style="fill:#ffe680;stroke:none;stroke-width:0.26458332px;stroke-linecap:butt;stroke-linejoin:miter;stroke-opacity:1" />
      <path
         inkscape:label="path4547"
         style="fill:#4d4d4d;stroke:#ffffff;stroke-width:0.28555429;stroke-linecap:round;stroke-linejoin:round;stroke-miterlimit:4;stroke-dasharray:none;stroke-opacity:1"
         d="m 12.090746,258.91414 c 0.813069,-1.56208 3.564196,-2.14421 4.41295,0.0726 -0.206954,0.58524 -1.401269,1.83809 -2.170597,1.79813 -1.482944,-0.044 -2.255358,-1.48754 -2.242353,-1.87075 z"
         id="path4547"
         inkscape:connector-curvature="0"
         sodipodi:nodetypes="cccc" />
      <path
         sodipodi:nodetypes="cccc"
         inkscape:connector-curvature="0"
         id="path4532"
         d="m 12.26099,258.94751 c 0.757116,-1.43666 3.318923,-1.97204 4.109269,0.0668 -0.192712,0.53824 -1.30484,1.6905 -2.021226,1.65373 -1.380894,-0.0404 -2.100154,-1.36808 -2.088043,-1.72053 z"
         style="fill:#4d4d4d;stroke:#000000;stroke-width:0.26458332px;stroke-linecap:butt;stroke-linejoin:miter;stroke-opacity:1" />
      <path
         sodipodi:nodetypes="cccc"
         inkscape:connector-curvature="0"
         id="path4536"
         d="m 13.079502,257.94524 c 0.09799,-0.16113 0.458937,-0.31215 1.135896,-0.45101 0.672066,0.97831 0.257079,1.4918 0.133635,1.46163 -0.22422,0.0362 -0.51772,-0.0576 -1.269531,-1.01062 z"
         style="fill:#ffffff;stroke:none;stroke-width:0.26458332px;stroke-linecap:butt;stroke-linejoin:miter;stroke-opacity:1" />
    </g>
    <g
       id="g4711"
       inkscape:label="Front Paws">
      <path
         inkscape:label="Paw"
         sodipodi:nodetypes="cccc"
         inkscape:connector-curvature="0"
         id="path4670-7"
         d="m 7.6281828,285.14996 c -1.996154,3.98242 0.641534,4.58338 5.8637392,3.29835 1.558282,-0.59964 2.549766,-1.0544 0.403132,-3.70149 -2.127538,-0.27367 -5.1638402,-1.93102 -6.2668712,0.40314 z"
         style="fill:#f4e3d7;stroke:#e9c6af;stroke-width:0.26458332px;stroke-linecap:butt;stroke-linejoin:miter;stroke-opacity:1" />
      <path
         inkscape:label="Paw"
         sodipodi:nodetypes="cccc"
         inkscape:connector-curvature="0"
         id="path4670"
         d="m 11.507587,286.33533 c -1.9961531,3.98242 0.641534,4.58338 5.863739,3.29835 1.558282,-0.59964 1.853447,-1.89731 -0.293187,-4.5444 -2.127538,-0.27367 -4.467521,-1.08811 -5.570552,1.24605 z"
         style="fill:#f4e3d7;stroke:#e9c6af;stroke-width:0.26458332px;stroke-linecap:butt;stroke-linejoin:miter;stroke-opacity:1" />
      <path
         inkscape:label="Paw"
         sodipodi:nodetypes="cccc"
         inkscape:connector-curvature="0"
         id="path4670-7-1"
         d="m 32.622368,284.56358 c -1.996154,3.98242 0.641534,4.58338 5.86374,3.29835 1.558282,-0.59964 1.853447,-1.89731 -0.293187,-4.5444 -2.127538,-0.27367 -4.467522,-1.08811 -5.570553,1.24605 z"
         style="fill:#f4e3d7;stroke:#e9c6af;stroke-width:0.26458332px;stroke-linecap:butt;stroke-linejoin:miter;stroke-opacity:1" />
      <path
         style="fill:#f4e3d7;stroke:#ffccaa;stroke-width:0.26458332px;stroke-linecap:butt;stroke-linejoin:miter;stroke-opacity:1"
         d="m 24.959717,284.29316 c -0.797651,0.82752 -1.234267,1.65221 4.488123,1.42354 1.558282,-0.59964 1.868246,0.36507 0.635979,-2.15965 -2.593995,-0.24775 -3.306427,-1.03 -5.124102,0.73611 z"
         id="path4670-7-5"
         inkscape:connector-curvature="0"
         sodipodi:nodetypes="cccc"
         inkscape:label="Back Paw" />
    </g>
  </g>
</svg>
